<svg xmlns="http://www.w3.org/2000/svg" xmlns:xlink="http://www.w3.org/1999/xlink" preserveAspectRatio="xMidYMid" width="11" height="92" viewBox="0 0 11 92">
  <defs>
    <style>

      .cls-2 {
        fill: #3a3a3a;
      }
    </style>
  </defs>
  <path d="M-0.000,59.000 C-0.000,59.000 4.000,61.000 4.000,61.000 C4.000,61.000 11.000,54.000 11.000,54.000 C11.000,54.000 4.000,65.000 4.000,65.000 C4.000,65.000 -0.000,59.000 -0.000,59.000 ZM-0.000,32.000 C-0.000,32.000 4.000,34.000 4.000,34.000 C4.000,34.000 11.000,27.000 11.000,27.000 C11.000,27.000 4.000,38.000 4.000,38.000 C4.000,38.000 -0.000,32.000 -0.000,32.000 ZM-0.000,5.000 C-0.000,5.000 4.000,7.000 4.000,7.000 C4.000,7.000 11.000,-0.000 11.000,-0.000 C11.000,-0.000 4.000,11.000 4.000,11.000 C4.000,11.000 -0.000,5.000 -0.000,5.000 ZM11.000,81.000 C11.000,81.000 4.000,92.000 4.000,92.000 C4.000,92.000 -0.000,86.000 -0.000,86.000 C-0.000,86.000 4.000,88.000 4.000,88.000 C4.000,88.000 11.000,81.000 11.000,81.000 Z" id="path-1" class="cls-2" fill-rule="evenodd"/>
</svg>
