<svg xmlns="http://www.w3.org/2000/svg" xmlns:xlink="http://www.w3.org/1999/xlink" preserveAspectRatio="xMidYMid" width="14" height="14" viewBox="0 0 14 14">
  <defs>
    <style>

      .cls-3 {
        fill: #757575;
      }

      .cls-4 {
        fill: #ffffff;
      }
    </style>
  </defs>
  <g id="infosvg">
    <circle id="circle-1" class="cls-3" cx="7" cy="7" r="7"/>
    <path d="M5.911,6.383 C5.991,6.103 5.831,5.998 5.704,6.021 C5.114,6.126 4.504,7.520 4.217,7.571 C4.105,7.591 3.997,7.506 3.987,7.419 C3.955,7.159 4.581,6.427 4.766,6.202 C5.335,5.539 6.112,4.973 7.036,4.809 C7.722,4.687 8.501,4.933 8.099,6.439 C8.099,6.439 7.298,9.463 7.298,9.463 C7.229,9.697 7.098,10.090 7.127,10.321 C7.139,10.422 7.215,10.513 7.342,10.490 C7.820,10.405 8.546,9.020 8.769,8.980 C8.849,8.966 8.970,9.033 8.986,9.163 C9.038,9.583 7.394,11.707 5.785,11.993 C5.211,12.095 4.783,11.920 4.715,11.370 C4.630,10.676 5.026,9.393 5.108,9.127 C5.108,9.127 5.911,6.383 5.911,6.383 ZM6.422,3.381 C6.344,2.744 6.885,2.116 7.586,1.992 C8.224,1.879 8.734,2.187 8.806,2.780 C8.888,3.446 8.343,4.045 7.626,4.172 C6.973,4.288 6.494,3.974 6.422,3.381 Z" id="path-1" class="cls-4" fill-rule="evenodd"/>
  </g>
</svg>
