<?xml version="1.0" encoding="utf-8"?>
<!-- Generator: Adobe Illustrator 16.0.0, SVG Export Plug-In . SVG Version: 6.00 Build 0)  -->
<!DOCTYPE svg PUBLIC "-//W3C//DTD SVG 1.1//EN" "http://www.w3.org/Graphics/SVG/1.1/DTD/svg11.dtd">
<svg version="1.1" id="Calque_1" xmlns="http://www.w3.org/2000/svg" xmlns:xlink="http://www.w3.org/1999/xlink" x="0px" y="0px"
	  viewBox="0 0 50 50" enable-background="new 0 0 50 50" xml:space="preserve">
<path fill-rule="evenodd" clip-rule="evenodd" fill="#FFFFFF" d="M37.521,33.867c-0.569,0.848-1.705,1.061-2.531,0.473l-7.477-5.301
	c-0.529-0.373-0.803-0.984-0.783-1.598c-0.963,1.059-2.229,1.77-3.646,2.033c-1.741,0.326-3.499-0.063-4.95-1.092
	c-1.452-1.029-2.426-2.576-2.744-4.359c-0.317-1.783,0.061-3.585,1.067-5.073c2.076-3.072,6.205-3.843,9.206-1.717
	c2.723,1.932,3.593,5.597,2.179,8.555c0.552-0.238,1.208-0.191,1.74,0.186l7.479,5.301C37.888,31.863,38.094,33.023,37.521,33.867z
	 M26.437,21.962c-0.222-1.243-0.899-2.322-1.912-3.039c-2.091-1.483-4.971-0.947-6.42,1.195c-1.448,2.145-0.924,5.095,1.168,6.577
	c2.091,1.482,4.971,0.947,6.42-1.196C26.395,24.462,26.658,23.206,26.437,21.962z"/>
</svg>
