<?xml version="1.0" encoding="utf-8"?>
<!-- Generator: Adobe Illustrator 19.0.0, SVG Export Plug-In . SVG Version: 6.00 Build 0)  -->
<svg version="1.1" id="Layer_1" xmlns="http://www.w3.org/2000/svg" xmlns:xlink="http://www.w3.org/1999/xlink" x="0px" y="0px"
	 width="15px" height="15px" viewBox="0 0 15 15" enable-background="new 0 0 15 15" xml:space="preserve">
<path d="M14.8,12.6C14,14.6,12,15,11.4,15c-0.2,0-3.2,0.2-7.4-3.9C0.5,7.8,0,4.3,0,3.6C0,3,0.2,1.4,2.4,0.2c0.3-0.2,0.8-0.2,1-0.1
	c0.1,0.1,1.9,3.2,2,3.3c0,0.1,0.1,0.2,0.1,0.3c0,0.1-0.1,0.3-0.3,0.5C4.9,4.4,4.7,4.6,4.5,4.8C4.2,4.9,4,5.1,3.8,5.3
	C3.6,5.5,3.5,5.7,3.5,5.8c0,0.3,0.3,1.5,2.3,3.3C7.9,11,8.9,11.5,9,11.5c0.1,0,0.2,0.1,0.2,0.1c0.1,0,0.3-0.1,0.5-0.3
	c0.2-0.2,0.9-1.1,1.1-1.3c0.2-0.2,0.4-0.3,0.5-0.3c0.1,0,0.2,0,0.3,0.1c0.1,0,3.2,1.9,3.3,1.9C15.1,11.8,15,12.3,14.8,12.6"/>
</svg>
